<svg xmlns="http://www.w3.org/2000/svg" width="28" height="28" viewBox="0 0 28 28" fill="none"><g clip-path="url(#clip0_1971_1075)"><path fill-rule="evenodd" clip-rule="evenodd" d="M9.60022 0.352417C8.02074 0.352417 6.50601 0.96455 5.38917 2.05415L0 7.31184V9.71848C0 11.4188 0.748608 12.9484 1.94181 14.0109C0.748608 15.0734 0 16.6031 0 18.3034V20.71L5.38917 25.9678C6.50601 27.0574 8.02074 27.6695 9.60022 27.6695C11.343 27.6695 12.9109 26.9392 14 25.775C15.0891 26.9392 16.657 27.6695 18.3998 27.6695C19.9793 27.6695 21.494 27.0574 22.6108 25.9678L28 20.71V18.3034C28 16.6031 27.2514 15.0734 26.0582 14.0109C27.2514 12.9484 28 11.4188 28 9.71848V7.31184L22.6108 2.05415C21.494 0.96455 19.9793 0.352417 18.3998 0.352417C16.657 0.352417 15.0891 1.08276 14 2.24686C12.9109 1.08276 11.343 0.352417 9.60022 0.352417ZM18.0312 14.0109C17.964 13.9512 17.8982 13.8898 17.8336 13.8268L14 10.0867L10.1664 13.8268C10.1018 13.8898 10.036 13.9512 9.96884 14.0109C10.036 14.0707 10.1018 14.1321 10.1664 14.1951L14 17.9352L17.8336 14.1951C17.8982 14.1321 17.964 14.0707 18.0312 14.0109ZM15.5555 20.71V21.8594C15.5555 23.3919 16.829 24.6343 18.3998 24.6343C19.1541 24.6343 19.8776 24.3419 20.411 23.8215L24.8889 19.4528V18.3034C24.8889 16.7709 23.6155 15.5285 22.0447 15.5285C21.2904 15.5285 20.5669 15.8209 20.0335 16.3413L15.5555 20.71ZM12.4445 20.71L7.96649 16.3413C7.43309 15.8209 6.70967 15.5285 5.95533 15.5285C4.38451 15.5285 3.11111 16.7709 3.11111 18.3034V19.4528L7.58905 23.8215C8.12245 24.3419 8.8459 24.6343 9.60022 24.6343C11.171 24.6343 12.4445 23.3919 12.4445 21.8594V20.71ZM12.4445 6.1625V7.31184L7.96649 11.6806C7.43309 12.201 6.70967 12.4933 5.95533 12.4933C4.38451 12.4933 3.11111 11.251 3.11111 9.71848V8.56911L7.58905 4.20038C8.12245 3.68 8.8459 3.38765 9.60022 3.38765C11.171 3.38765 12.4445 4.62999 12.4445 6.1625ZM20.0335 11.6806L15.5555 7.31184V6.1625C15.5555 4.62999 16.829 3.38765 18.3998 3.38765C19.1541 3.38765 19.8776 3.68 20.411 4.20038L24.8889 8.56911V9.71848C24.8889 11.251 23.6155 12.4933 22.0447 12.4933C21.2904 12.4933 20.5669 12.201 20.0335 11.6806Z" fill="#BB3A6E"></path></g><defs><clipPath id="clip0_1971_1075"><rect width="28" height="28" fill="white"></rect></clipPath></defs></svg>